<svg width="88" height="90" viewBox="0 0 88 90" fill="none" xmlns="http://www.w3.org/2000/svg">
<ellipse cx="44" cy="45" rx="43" ry="45" fill="#CFED80"/>
<path d="M1 46.5001C1 46.5001 62 4.00006 44 46.5001C26 89.0001 87 46.5001 87 46.5001" stroke="#A5A19A"/>
<path d="M1 53.8889C1 53.8889 62 11.3889 44 53.8889C26 96.3889 87 53.8889 87 53.8889" stroke="#A5A19A"/>
<path d="M31.6094 48.125C31.8906 48.125 32.0312 48.2969 32.0312 48.6406C32.0312 48.7656 32.0156 48.849 31.9844 48.8906C31.0677 51.349 29.9583 56.0052 28.6562 62.8594C28.3958 64.224 28.4167 65.0312 28.7188 65.2812C28.8125 65.3646 28.9323 65.4062 29.0781 65.4062C29.6406 65.4062 30.1406 65.2396 30.5781 64.9062C31.276 64.375 32.6302 63.1042 34.6406 61.0938V62.8438C34.3281 63.1667 33.9115 63.6094 33.3906 64.1719C32.8802 64.724 32.4792 65.151 32.1875 65.4531C31.9062 65.7552 31.5521 66.1198 31.125 66.5469C30.6979 66.9635 30.3333 67.2917 30.0312 67.5312C29.7292 67.7604 29.3958 67.9948 29.0312 68.2344C28.3646 68.6719 27.7396 68.8906 27.1562 68.8906C26.5729 68.8906 26.1302 68.7812 25.8281 68.5625C25.224 68.1458 24.9219 67.2552 24.9219 65.8906C24.9219 65.5885 24.9427 65.2865 24.9844 64.9844C23.8594 66.151 22.6198 67.0938 21.2656 67.8125C19.9115 68.5312 18.6875 68.8906 17.5938 68.8906C15.7396 68.8906 14.3854 68.3906 13.5312 67.3906C12.6771 66.3802 12.25 64.875 12.25 62.875C12.25 61.4375 12.5156 59.9583 13.0469 58.4375C13.5885 56.9062 14.3177 55.4635 15.2344 54.1094C16.151 52.7552 17.2396 51.474 18.5 50.2656C19.7604 49.0469 21.0938 48 22.5 47.125C25.5417 45.2292 28.5469 44.2812 31.5156 44.2812C32.5677 44.2812 33.6354 44.4479 34.7188 44.7812C36.7812 45.4062 37.8125 46.2656 37.8125 47.3594C37.8125 47.7969 37.4792 48.3177 36.8125 48.9219C36.1562 49.526 35.5938 49.8906 35.125 50.0156C34.5208 47.2031 33.0052 45.7969 30.5781 45.7969C28.724 45.7969 26.6458 46.5938 24.3438 48.1875C22.1458 49.7083 20.2708 51.6094 18.7188 53.8906C17.0938 56.2969 16.2812 58.5885 16.2812 60.7656C16.2812 62.4219 16.6771 63.6927 17.4688 64.5781C18.2708 65.4531 19.3698 65.8906 20.7656 65.8906C21.6927 65.8906 22.6354 65.5104 23.5938 64.75C24.5521 63.9792 25.1354 63.0312 25.3438 61.9062C25.5625 60.7812 26.0573 58.5521 26.8281 55.2188C27.6094 51.8854 28.1094 49.8698 28.3281 49.1719C28.5573 48.474 29.651 48.125 31.6094 48.125Z" fill="#8970F4"/>
<path d="M63.9062 34.25C65.0938 34.25 66.2083 34.0521 67.25 33.6562C68.2917 33.25 69.1458 32.7396 69.8125 32.125C70.4896 31.5 71.0156 30.8333 71.3906 30.125C71.776 29.4062 71.9688 28.724 71.9688 28.0781C71.9688 26.7969 71.3698 25.6719 70.1719 24.7031C68.974 23.724 67.4479 23.2344 65.5938 23.2344C63.2188 23.2344 61 23.6458 58.9375 24.4688C57.9583 24.8646 57.1615 25.375 56.5469 26C55.9427 26.625 55.6406 27.2969 55.6406 28.0156C55.6406 28.724 55.8698 29.276 56.3281 29.6719C56.7865 30.0677 57.401 30.4219 58.1719 30.7344C58.1719 31.6823 58.0365 32.5104 57.7656 33.2188C56.526 32.8229 55.4688 32.2448 54.5938 31.4844C53.6146 30.6406 53.125 29.6354 53.125 28.4688C53.125 27.2917 53.4948 26.2552 54.2344 25.3594C54.9844 24.4635 55.9635 23.724 57.1719 23.1406C59.7344 21.901 62.651 21.2812 65.9219 21.2812C68.5677 21.2812 70.9062 21.8646 72.9375 23.0312C73.8958 23.5729 74.6667 24.2656 75.25 25.1094C75.8333 25.9427 76.125 26.8438 76.125 27.8125C76.125 28.7812 75.9271 29.6354 75.5312 30.375C75.1458 31.1042 74.5521 31.7396 73.75 32.2812C72.3125 33.2708 70.1719 34.1302 67.3281 34.8594C67.8906 35.1719 68.4792 35.8125 69.0938 36.7812C69.7083 37.75 70.2292 38.724 70.6562 39.7031C71.0833 40.6823 71.5 41.5625 71.9062 42.3438C72.3229 43.1146 72.6406 43.5 72.8594 43.5C73.0781 43.5 73.3906 43.3646 73.7969 43.0938C74.2135 42.8229 74.6771 42.4583 75.1875 42C75.6979 41.5417 76.1771 41.099 76.625 40.6719C77.0833 40.2344 77.5677 39.7604 78.0781 39.25C78.599 38.7396 78.9531 38.3958 79.1406 38.2188L79.1719 39.8125C79.0573 39.9375 78.7448 40.2812 78.2344 40.8438C77.724 41.4062 77.3542 41.8073 77.125 42.0469C76.8958 42.2865 76.5365 42.651 76.0469 43.1406C75.5573 43.6302 75.1458 44 74.8125 44.25C74.4896 44.4896 74.1042 44.7604 73.6562 45.0625C72.8333 45.6146 72.099 45.8906 71.4531 45.8906C70.8073 45.8906 70.2865 45.8229 69.8906 45.6875C69.4948 45.5521 69.1615 45.349 68.8906 45.0781C68.6198 44.8177 68.401 44.5729 68.2344 44.3438C68.0677 44.1042 67.8802 43.8021 67.6719 43.4375C67.474 43.0729 67.3177 42.8125 67.2031 42.6562C66.0156 39.5104 64.8438 37.1667 63.6875 35.625C63.6562 35.7292 63.5781 36.026 63.4531 36.5156C63.3281 36.9948 63.2031 37.4479 63.0781 37.875C62.9635 38.2917 62.7656 38.8958 62.4844 39.6875C62.2031 40.4688 61.9323 41.099 61.6719 41.5781C61.4219 42.0573 61.0781 42.6042 60.6406 43.2188C60.2031 43.8229 59.7448 44.2969 59.2656 44.6406C58.099 45.474 56.7969 45.8906 55.3594 45.8906C54.099 45.8906 52.9479 45.5521 51.9062 44.875C50.7708 44.1354 50.2031 43.1094 50.2031 41.7969C50.2031 41.224 50.5312 40.7865 51.1875 40.4844C51.8333 40.1719 52.6354 40.0156 53.5938 40.0156C53.6667 40.0156 53.7448 40.0365 53.8281 40.0781C53.7865 40.4948 53.7656 40.875 53.7656 41.2188C53.7656 43.1875 54.4167 44.1719 55.7188 44.1719C56.4167 44.1719 57.0833 43.6406 57.7188 42.5781C58.3542 41.5052 58.8906 40.1615 59.3281 38.5469C59.776 36.9323 60.1667 35.3333 60.5 33.75C60.8333 32.1667 61.1198 30.6927 61.3594 29.3281C61.599 27.9635 61.7552 27.1719 61.8281 26.9531C61.901 26.724 61.9531 26.5729 61.9844 26.5C62.0156 26.4167 62.0885 26.2917 62.2031 26.125C62.3281 25.9479 62.4688 25.8281 62.625 25.7656C63.0938 25.5781 63.6042 25.4844 64.1562 25.4844C64.7083 25.4844 65.125 25.4948 65.4062 25.5156C65.1354 27.776 64.6354 30.6875 63.9062 34.25Z" fill="#8970F4"/>
<path d="M22.4304 14.6394C23.5313 14.6402 24.5384 14.1541 25.2586 13.3737C25.9803 12.5968 26.4305 11.5091 26.4305 10.3201C26.4305 9.1311 25.9803 8.04261 25.2586 7.26478C24.5384 6.48532 23.5313 5.99916 22.4304 6C21.3294 5.99916 20.3224 6.48532 19.6021 7.26563C18.8804 8.04261 18.4303 9.1311 18.4311 10.3201C18.4303 11.5091 18.8804 12.5959 19.6021 13.3737C20.3224 14.154 21.3295 14.6402 22.4304 14.6394ZM21.228 9.02068C21.5393 8.68613 21.9574 8.48342 22.4304 8.48263C22.9041 8.48347 23.3215 8.68613 23.6335 9.02068C23.9425 9.35686 24.131 9.80842 24.131 10.3201C24.131 10.831 23.9426 11.2817 23.6335 11.6187C23.3215 11.9524 22.9041 12.1559 22.4304 12.1567C21.9573 12.1559 21.5393 11.9524 21.228 11.6187C20.9182 11.2817 20.7305 10.8309 20.7298 10.3201C20.7306 9.80837 20.9183 9.35686 21.228 9.02068Z" fill="#260C95"/>
<path d="M31.1943 14.6394C32.2952 14.6402 33.3023 14.1541 34.0225 13.3737C34.7442 12.5959 35.1944 11.5091 35.1936 10.3201C35.1944 9.1311 34.7442 8.04261 34.0225 7.26563C33.3023 6.48532 32.2952 5.99916 31.1943 6C30.0941 5.99916 29.0863 6.48532 28.3661 7.26478C27.6436 8.04261 27.1942 9.1311 27.195 10.3201C27.1942 11.5091 27.6443 12.5968 28.3661 13.3737C29.0863 14.154 30.0941 14.6402 31.1943 14.6394ZM29.9919 9.02068C30.3032 8.68613 30.7213 8.48342 31.1943 8.48263C31.6673 8.48347 32.0854 8.68613 32.3967 9.02068C32.7064 9.35686 32.8941 9.80842 32.8949 10.3201C32.8941 10.831 32.7064 11.2817 32.3967 11.6187C32.0854 11.9524 31.6673 12.1559 31.1943 12.1567C30.7212 12.1559 30.3032 11.9524 29.9919 11.6187C29.6821 11.2817 29.4944 10.8309 29.4937 10.3201C29.4944 9.80837 29.6821 9.35686 29.9919 9.02068Z" fill="#260C95"/>
<path d="M33.2855 15.3364H20.2438C19.6273 15.3356 19.0605 15.6092 18.6569 16.0458C18.2525 16.4817 18 17.0939 18 17.7597V25.604C18 26.2697 18.2525 26.8828 18.6569 27.3178C19.0605 27.7545 19.6273 28.0281 20.2438 28.0273H33.2855C33.9012 28.0281 34.4688 27.7545 34.8716 27.3178C35.2768 26.8828 35.53 26.2697 35.5293 25.604V17.7597C35.5301 17.0939 35.2768 16.4817 34.8716 16.0458C34.4688 15.6092 33.9012 15.3356 33.2855 15.3364ZM33.5182 25.604C33.5167 25.6773 33.493 25.7333 33.4496 25.7819C33.4045 25.8289 33.3527 25.8544 33.2855 25.8553H20.2438C20.1759 25.8544 20.1248 25.8289 20.0798 25.7819C20.0363 25.7333 20.0126 25.6773 20.0111 25.604V17.7597C20.0126 17.6872 20.0363 17.6311 20.0798 17.5817C20.1248 17.5356 20.1759 17.5092 20.2438 17.5084H33.2855C33.3526 17.5092 33.4045 17.5356 33.4495 17.5817C33.493 17.6312 33.5167 17.6872 33.5182 17.7597L33.5182 25.604Z" fill="#260C95"/>
<path d="M42.115 15.9808C41.8304 15.7954 41.5031 15.6982 41.1812 15.6982C40.8851 15.6982 40.5921 15.7764 40.3213 15.9314L36.721 18.0045V20.4682L40.9889 18.0111V25.3568L36.721 22.8956V25.3601L40.3213 27.4324C40.5922 27.5881 40.8852 27.6656 41.1812 27.6656C41.5031 27.6656 41.8304 27.5725 42.1181 27.3863C42.6643 27.0295 43 26.3901 43 25.6979V17.6658C43 16.9737 42.6643 16.3342 42.115 15.9808Z" fill="#260C95"/>
</svg>
