<svg width="91" height="127" viewBox="0 0 91 127" fill="none" xmlns="http://www.w3.org/2000/svg">
<path fill-rule="evenodd" clip-rule="evenodd" d="M54.8914 9.21192C48.9769 5.46877 40.8636 3.48519 33.7916 1.97804L34.2084 0.021965C41.2478 1.52216 49.7026 3.56118 55.9609 7.52193C59.1065 9.51268 61.7516 12.0213 63.3726 15.2425C65.0007 18.4778 65.5525 22.3472 64.6481 26.9698C61.9696 40.6599 58.0373 54.3177 54.1632 67.7735C53.0441 71.6608 51.9297 75.5313 50.8519 79.3807C50.1948 81.7273 49.4143 84.0542 48.6469 86.3421C48.4603 86.8983 48.2746 87.4522 48.0915 88.0035C47.1502 90.8383 46.2759 93.6198 45.6909 96.3992C44.526 101.934 44.5196 107.406 47.445 113.098C49.4635 117.026 53.7219 119.101 58.7682 120.314C62.2568 121.153 65.9261 121.543 69.2796 121.899C70.7931 122.059 72.2422 122.213 73.5814 122.398C78.8517 123.127 84.0724 123.998 89.2914 124.868C89.5824 124.917 89.8734 124.965 90.1644 125.014C90.7092 125.104 91.0772 125.62 90.9864 126.164C90.8956 126.709 90.3804 127.077 89.8356 126.986C89.5471 126.938 89.2587 126.89 88.9705 126.842C83.7448 125.971 78.5494 125.104 73.3074 124.379C72.0858 124.211 70.7075 124.064 69.2362 123.907C65.827 123.545 61.9183 123.129 58.3007 122.259C53.105 121.01 48.0986 118.746 45.6661 114.013C42.4652 107.784 42.5088 101.807 43.7338 95.9873C44.3437 93.0893 45.2493 90.2166 46.1934 87.3733C46.3808 86.8089 46.5695 86.2461 46.7579 85.6845C47.5238 83.4009 48.2839 81.1344 48.9259 78.8415C50.0128 74.9597 51.1332 71.0681 52.2561 67.1677C56.1258 53.7262 60.0252 40.1816 62.6853 26.5858C63.5156 22.3421 62.9903 18.932 61.5861 16.1415C60.1747 13.3368 57.8322 11.0731 54.8914 9.21192Z" fill="black"/>
<path fill-rule="evenodd" clip-rule="evenodd" d="M26.8914 9.21192C20.9769 5.46877 12.8636 3.48519 5.79156 1.97804L6.20843 0.021965C13.2478 1.52216 21.7026 3.56118 27.9609 7.52193C31.1065 9.51268 33.7516 12.0213 35.3726 15.2425C37.0007 18.4778 37.5525 22.3472 36.6481 26.9698C33.9696 40.6599 30.0373 54.3177 26.1632 67.7735C25.0441 71.6608 23.9297 75.5313 22.8519 79.3807C22.1948 81.7273 21.4143 84.0542 20.6469 86.3421C20.4603 86.8983 20.2746 87.4522 20.0915 88.0035C19.1502 90.8383 18.2759 93.6198 17.6909 96.3992C16.526 101.934 16.5196 107.406 19.445 113.098C21.4635 117.026 25.7219 119.101 30.7682 120.314C34.2568 121.153 37.9261 121.543 41.2796 121.899C42.7931 122.059 44.2422 122.213 45.5814 122.398C50.8517 123.127 56.0724 123.998 61.2914 124.868C61.5824 124.917 61.8734 124.965 62.1644 125.014C62.7092 125.104 63.0772 125.62 62.9864 126.164C62.8956 126.709 62.3804 127.077 61.8356 126.986C61.5471 126.938 61.2587 126.89 60.9705 126.842C55.7448 125.971 50.5494 125.104 45.3074 124.379C44.0858 124.211 42.7075 124.064 41.2362 123.907C37.827 123.545 33.9183 123.129 30.3007 122.259C25.105 121.01 20.0986 118.746 17.6661 114.013C14.4652 107.784 14.5088 101.807 15.7338 95.9873C16.3437 93.0893 17.2493 90.2166 18.1934 87.3733C18.3808 86.8089 18.5695 86.2461 18.7579 85.6845C19.5238 83.4009 20.2839 81.1344 20.9259 78.8415C22.0128 74.9597 23.1332 71.0681 24.2561 67.1677C28.1258 53.7262 32.0252 40.1816 34.6853 26.5858C35.5156 22.3421 34.9903 18.932 33.5861 16.1415C32.1747 13.3368 29.8322 11.0731 26.8914 9.21192Z" fill="black"/>
<path fill-rule="evenodd" clip-rule="evenodd" d="M21.8914 9.21192C15.9769 5.46877 7.86361 3.48519 0.791565 1.97804L1.20843 0.021965C8.24782 1.52216 16.7026 3.56118 22.9609 7.52193C26.1065 9.51268 28.7516 12.0213 30.3726 15.2425C32.0007 18.4778 32.5525 22.3472 31.6481 26.9698C28.9696 40.6599 25.0373 54.3177 21.1632 67.7735C20.0441 71.6608 18.9297 75.5313 17.8519 79.3807C17.1948 81.7273 16.4143 84.0542 15.6469 86.3421C15.4603 86.8983 15.2746 87.4522 15.0915 88.0035C14.1502 90.8383 13.2759 93.6198 12.6909 96.3992C11.526 101.934 11.5196 107.406 14.445 113.098C16.4635 117.026 20.7219 119.101 25.7682 120.314C29.2568 121.153 32.9261 121.543 36.2796 121.899C37.7931 122.059 39.2422 122.213 40.5814 122.398C45.8517 123.127 51.0724 123.998 56.2914 124.868C56.5824 124.917 56.8734 124.965 57.1644 125.014C57.7092 125.104 58.0772 125.62 57.9864 126.164C57.8956 126.709 57.3804 127.077 56.8356 126.986C56.5471 126.938 56.2587 126.89 55.9705 126.842C50.7448 125.971 45.5494 125.104 40.3074 124.379C39.0858 124.211 37.7075 124.064 36.2362 123.907C32.827 123.545 28.9183 123.129 25.3007 122.259C20.105 121.01 15.0986 118.746 12.6661 114.013C9.46522 107.784 9.50881 101.807 10.7338 95.9873C11.3437 93.0893 12.2493 90.2166 13.1934 87.3733C13.3808 86.8089 13.5695 86.2461 13.7579 85.6845C14.5238 83.4009 15.2839 81.1344 15.9259 78.8415C17.0128 74.9597 18.1332 71.0681 19.2561 67.1677C23.1258 53.7262 27.0252 40.1816 29.6853 26.5858C30.5156 22.3421 29.9903 18.932 28.5861 16.1415C27.1747 13.3368 24.8322 11.0731 21.8914 9.21192Z" fill="black"/>
<path fill-rule="evenodd" clip-rule="evenodd" d="M49.8914 9.21192C43.9769 5.46877 35.8636 3.48519 28.7916 1.97804L29.2084 0.021965C36.2478 1.52216 44.7026 3.56118 50.9609 7.52193C54.1065 9.51268 56.7516 12.0213 58.3726 15.2425C60.0007 18.4778 60.5525 22.3472 59.6481 26.9698C56.9696 40.6599 53.0373 54.3177 49.1632 67.7735C48.0441 71.6608 46.9297 75.5313 45.8519 79.3807C45.1948 81.7273 44.4143 84.0542 43.6469 86.3421C43.4603 86.8983 43.2746 87.4522 43.0915 88.0035C42.1502 90.8383 41.2759 93.6198 40.6909 96.3992C39.526 101.934 39.5196 107.406 42.445 113.098C44.4635 117.026 48.7219 119.101 53.7682 120.314C57.2568 121.153 60.9261 121.543 64.2796 121.899C65.7931 122.059 67.2422 122.213 68.5814 122.398C73.8517 123.127 79.0724 123.998 84.2914 124.868C84.5824 124.917 84.8734 124.965 85.1644 125.014C85.7092 125.104 86.0772 125.62 85.9864 126.164C85.8956 126.709 85.3804 127.077 84.8356 126.986C84.5471 126.938 84.2587 126.89 83.9705 126.842C78.7448 125.971 73.5494 125.104 68.3074 124.379C67.0858 124.211 65.7075 124.064 64.2362 123.907C60.827 123.545 56.9183 123.129 53.3007 122.259C48.105 121.01 43.0986 118.746 40.6661 114.013C37.4652 107.784 37.5088 101.807 38.7338 95.9873C39.3437 93.0893 40.2493 90.2166 41.1934 87.3733C41.3808 86.8089 41.5695 86.2461 41.7579 85.6845C42.5238 83.4009 43.2839 81.1344 43.9259 78.8415C45.0128 74.9597 46.1332 71.0681 47.2561 67.1677C51.1258 53.7262 55.0252 40.1816 57.6853 26.5858C58.5156 22.3421 57.9903 18.932 56.5861 16.1415C55.1747 13.3368 52.8322 11.0731 49.8914 9.21192Z" fill="black"/>
<path fill-rule="evenodd" clip-rule="evenodd" d="M18 112L13 113L12.8039 112.019L17.8039 111.019L18 112Z" fill="black"/>
<path fill-rule="evenodd" clip-rule="evenodd" d="M20 115L15 116L14.8039 115.019L19.8039 114.019L20 115Z" fill="black"/>
<path fill-rule="evenodd" clip-rule="evenodd" d="M60 13L55 14L54.8039 13.0194L59.8039 12.0194L60 13Z" fill="black"/>
<path fill-rule="evenodd" clip-rule="evenodd" d="M62 16L57 17L56.8039 16.0194L61.8039 15.0194L62 16Z" fill="black"/>
<path fill-rule="evenodd" clip-rule="evenodd" d="M36 24H31V23H36V24Z" fill="black"/>
<path fill-rule="evenodd" clip-rule="evenodd" d="M36 27H31V26H36V27Z" fill="black"/>
<path fill-rule="evenodd" clip-rule="evenodd" d="M32 40H27V39H32V40Z" fill="black"/>
<path fill-rule="evenodd" clip-rule="evenodd" d="M32 43H27V42H32V43Z" fill="black"/>
<path fill-rule="evenodd" clip-rule="evenodd" d="M34 32H29V31H34V32Z" fill="black"/>
<path fill-rule="evenodd" clip-rule="evenodd" d="M34 35H29V34H34V35Z" fill="black"/>
<path fill-rule="evenodd" clip-rule="evenodd" d="M36 24H31V23H36V24Z" fill="black"/>
<path fill-rule="evenodd" clip-rule="evenodd" d="M36 27H31V26H36V27Z" fill="black"/>
<path fill-rule="evenodd" clip-rule="evenodd" d="M30 48H25V47H30V48Z" fill="black"/>
<path fill-rule="evenodd" clip-rule="evenodd" d="M30 51H25V50H30V51Z" fill="black"/>
<path fill-rule="evenodd" clip-rule="evenodd" d="M28 56H23V55H28V56Z" fill="black"/>
<path fill-rule="evenodd" clip-rule="evenodd" d="M28 59H23V58H28V59Z" fill="black"/>
<path fill-rule="evenodd" clip-rule="evenodd" d="M26 64H21V63H26V64Z" fill="black"/>
<path fill-rule="evenodd" clip-rule="evenodd" d="M26 67H21V66H26V67Z" fill="black"/>
<path fill-rule="evenodd" clip-rule="evenodd" d="M24 72H19V71H24V72Z" fill="black"/>
<path fill-rule="evenodd" clip-rule="evenodd" d="M24 75H19V74H24V75Z" fill="black"/>
<path fill-rule="evenodd" clip-rule="evenodd" d="M21 80H16V79H21V80Z" fill="black"/>
<path fill-rule="evenodd" clip-rule="evenodd" d="M21 83H16V82H21V83Z" fill="black"/>
<path fill-rule="evenodd" clip-rule="evenodd" d="M19 88H14V87H19V88Z" fill="black"/>
<path fill-rule="evenodd" clip-rule="evenodd" d="M19 91H14V90H19V91Z" fill="black"/>
<path fill-rule="evenodd" clip-rule="evenodd" d="M16 96H11V95H16V96Z" fill="black"/>
<path fill-rule="evenodd" clip-rule="evenodd" d="M16 99H11V98H16V99Z" fill="black"/>
<path fill-rule="evenodd" clip-rule="evenodd" d="M16 104H11V103H16V104Z" fill="black"/>
<path fill-rule="evenodd" clip-rule="evenodd" d="M16 107H11V106H16V107Z" fill="black"/>
<path fill-rule="evenodd" clip-rule="evenodd" d="M34 15L29 16L28.8039 15.0194L33.8039 14.0194L34 15Z" fill="black"/>
<path fill-rule="evenodd" clip-rule="evenodd" d="M35 18L30 19L29.8039 18.0194L34.8039 17.0194L35 18Z" fill="black"/>
<path fill-rule="evenodd" clip-rule="evenodd" d="M60 40H55V39H60V40Z" fill="black"/>
<path fill-rule="evenodd" clip-rule="evenodd" d="M60 43H55V42H60V43Z" fill="black"/>
<path fill-rule="evenodd" clip-rule="evenodd" d="M56 56H51V55H56V56Z" fill="black"/>
<path fill-rule="evenodd" clip-rule="evenodd" d="M56 59H51V58H56V59Z" fill="black"/>
<path fill-rule="evenodd" clip-rule="evenodd" d="M59 48H54V47H59V48Z" fill="black"/>
<path fill-rule="evenodd" clip-rule="evenodd" d="M59 51H54V50H59V51Z" fill="black"/>
<path fill-rule="evenodd" clip-rule="evenodd" d="M49 81H44V80H49V81Z" fill="black"/>
<path fill-rule="evenodd" clip-rule="evenodd" d="M49 84H44V83H49V84Z" fill="black"/>
<path fill-rule="evenodd" clip-rule="evenodd" d="M54 64H49V63H54V64Z" fill="black"/>
<path fill-rule="evenodd" clip-rule="evenodd" d="M54 67H49V66H54V67Z" fill="black"/>
<path fill-rule="evenodd" clip-rule="evenodd" d="M63 32H58V31H63V32Z" fill="black"/>
<path fill-rule="evenodd" clip-rule="evenodd" d="M63 35H58V34H63V35Z" fill="black"/>
<path fill-rule="evenodd" clip-rule="evenodd" d="M64 23H59V22H64V23Z" fill="black"/>
<path fill-rule="evenodd" clip-rule="evenodd" d="M64 26H59V25H64V26Z" fill="black"/>
<path fill-rule="evenodd" clip-rule="evenodd" d="M52 72H47V71H52V72Z" fill="black"/>
<path fill-rule="evenodd" clip-rule="evenodd" d="M52 75H47V74H52V75Z" fill="black"/>
<path fill-rule="evenodd" clip-rule="evenodd" d="M46 89H41V88H46V89Z" fill="black"/>
<path fill-rule="evenodd" clip-rule="evenodd" d="M46 92H41V91H46V92Z" fill="black"/>
<path fill-rule="evenodd" clip-rule="evenodd" d="M44 97H39V96H44V97Z" fill="black"/>
<path fill-rule="evenodd" clip-rule="evenodd" d="M44 100H39V99H44V100Z" fill="black"/>
<path fill-rule="evenodd" clip-rule="evenodd" d="M44 105H39V104H44V105Z" fill="black"/>
<path fill-rule="evenodd" clip-rule="evenodd" d="M44 108H39V107H44V108Z" fill="black"/>
<path fill-rule="evenodd" clip-rule="evenodd" d="M46 112L41 113L40.8039 112.019L45.8039 111.019L46 112Z" fill="black"/>
<path fill-rule="evenodd" clip-rule="evenodd" d="M48 115L43 116L42.8039 115.019L47.8039 114.019L48 115Z" fill="black"/>
<path fill-rule="evenodd" clip-rule="evenodd" d="M52 56H28V55H52V56Z" fill="black"/>
<path fill-rule="evenodd" clip-rule="evenodd" d="M33 14L55 13L54.9546 12.001L32.9546 13.001L33 14ZM34 35H57V34H34V35Z" fill="black"/>
<path fill-rule="evenodd" clip-rule="evenodd" d="M46 75H23V74H46V75Z" fill="black"/>
<path fill-rule="evenodd" clip-rule="evenodd" d="M41 94H17V93H41V94Z" fill="black"/>
<path fill-rule="evenodd" clip-rule="evenodd" d="M43 116H20V115H43V116Z" fill="black"/>
</svg>
